<svg xmlns="http://www.w3.org/2000/svg" viewBox="0 0 64 64" role="img" aria-label="AppForge">
  <defs>
    <linearGradient id="bg" x1="8" x2="56" y1="3" y2="61" gradientUnits="userSpaceOnUse">
      <stop offset="0" stop-color="#190033" />
      <stop offset=".5" stop-color="#6d22cf" />
      <stop offset="1" stop-color="#12001f" />
    </linearGradient>
    <linearGradient id="flame" x1="32" x2="32" y1="57" y2="13" gradientUnits="userSpaceOnUse">
      <stop offset="0" stop-color="#2a0068" />
      <stop offset=".55" stop-color="#b833ff" />
      <stop offset="1" stop-color="#ffe1ff" />
    </linearGradient>
    <linearGradient id="metal" x1="15" x2="50" y1="38" y2="47" gradientUnits="userSpaceOnUse">
      <stop offset="0" stop-color="#fff7d5" />
      <stop offset=".42" stop-color="#ffd166" />
      <stop offset="1" stop-color="#c44a22" />
    </linearGradient>
  </defs>
  <rect width="64" height="64" rx="14" fill="url(#bg)" />
  <path d="M32 57c-11-8-12-19-5-30 4-6 5-11 3-17 12 7 16 16 12 26-2 5 0 8 4 12 3 3 3 6 0 8-5 3-10 3-14 1Z" fill="url(#flame)" />
  <path d="M16 39c1-4 4-6 8-6l25 4c4 1 6 4 5 8l-1 6c-1 4-5 6-9 5l-25-5c-4-1-6-4-5-8l2-4Z" fill="url(#metal)" />
  <text x="34" y="49" fill="#fff" font-family="Arial, Helvetica, sans-serif" font-size="11" font-weight="900" letter-spacing=".8" text-anchor="middle" transform="rotate(10 34 45)">APP</text>
  <g transform="rotate(-38 40 27)">
    <rect x="38" y="19" width="5" height="25" rx="2.5" fill="#8c4b2f" />
    <rect x="29" y="13" width="20" height="9" rx="3" fill="#d9d4e8" />
    <rect x="46" y="15" width="5" height="5" rx="1.5" fill="#5e5874" />
  </g>
</svg>
